<?xml version="1.0" encoding="UTF-8" standalone="no"?>
<!DOCTYPE svg PUBLIC "-//W3C//DTD SVG 1.1//EN"
 "http://www.w3.org/Graphics/SVG/1.1/DTD/svg11.dtd">
<!-- Generated by graphviz version 14.1.5 (0)
 -->
<!-- Title: my_graph Pages: 1 -->
<svg width="932pt" height="1014pt"
 viewBox="0.00 0.00 932.00 1014.00" xmlns="http://www.w3.org/2000/svg" xmlns:xlink="http://www.w3.org/1999/xlink">
<g id="graph0" class="graph" transform="scale(1 1) rotate(0) translate(4 1009.75)">
<title>my_graph</title>
<polygon fill="white" stroke="none" points="-4,4 -4,-1009.75 928,-1009.75 928,4 -4,4"/>
<!-- x -->
<g id="node1" class="node">
<title>x</title>
<path fill="AliceBlue" stroke="black" d="M12,-904.25C12,-904.25 156.25,-904.25 156.25,-904.25 162.25,-904.25 168.25,-910.25 168.25,-916.25 168.25,-916.25 168.25,-993.25 168.25,-993.25 168.25,-999.25 162.25,-1005.25 156.25,-1005.25 156.25,-1005.25 12,-1005.25 12,-1005.25 6,-1005.25 0,-999.25 0,-993.25 0,-993.25 0,-916.25 0,-916.25 0,-910.25 6,-904.25 12,-904.25"/>
<text xml:space="preserve" text-anchor="middle" x="84.12" y="-987.95" font-family="Times,serif" font-size="14.00" fill="#000000">name=%x</text>
<polyline fill="none" stroke="black" points="0,-980 168.25,-980"/>
<text xml:space="preserve" text-anchor="middle" x="84.12" y="-962.7" font-family="Times,serif" font-size="14.00" fill="#000000">op_code=placeholder</text>
<polyline fill="none" stroke="black" points="0,-954.75 168.25,-954.75"/>
<text xml:space="preserve" text-anchor="middle" x="84.12" y="-937.45" font-family="Times,serif" font-size="14.00" fill="#000000">target=x</text>
<polyline fill="none" stroke="black" points="0,-929.5 168.25,-929.5"/>
<text xml:space="preserve" text-anchor="middle" x="84.12" y="-912.2" font-family="Times,serif" font-size="14.00" fill="#000000">num_users=1</text>
</g>
<!-- add -->
<g id="node3" class="node">
<title>add</title>
<path fill="#ffe7ba" stroke="black" d="M103.62,-766.25C103.62,-766.25 254.62,-766.25 254.62,-766.25 260.62,-766.25 266.62,-772.25 266.62,-778.25 266.62,-778.25 266.62,-855.25 266.62,-855.25 266.62,-861.25 260.62,-867.25 254.62,-867.25 254.62,-867.25 103.62,-867.25 103.62,-867.25 97.62,-867.25 91.62,-861.25 91.62,-855.25 91.62,-855.25 91.62,-778.25 91.62,-778.25 91.62,-772.25 97.62,-766.25 103.62,-766.25"/>
<text xml:space="preserve" text-anchor="middle" x="179.12" y="-849.95" font-family="Times,serif" font-size="14.00" fill="#000000">name=%add</text>
<polyline fill="none" stroke="black" points="91.62,-842 266.62,-842"/>
<text xml:space="preserve" text-anchor="middle" x="179.12" y="-824.7" font-family="Times,serif" font-size="14.00" fill="#000000">op_code=call_function</text>
<polyline fill="none" stroke="black" points="91.62,-816.75 266.62,-816.75"/>
<text xml:space="preserve" text-anchor="middle" x="179.12" y="-799.45" font-family="Times,serif" font-size="14.00" fill="#000000">target=_operator.add</text>
<polyline fill="none" stroke="black" points="91.62,-791.5 266.62,-791.5"/>
<text xml:space="preserve" text-anchor="middle" x="179.12" y="-774.2" font-family="Times,serif" font-size="14.00" fill="#000000">num_users=1</text>
</g>
<!-- x&#45;&gt;add -->
<g id="edge3" class="edge">
<title>x&#45;&gt;add</title>
<path fill="none" stroke="black" d="M118.96,-903.88C125.09,-895.1 131.53,-885.89 137.81,-876.89"/>
<polygon fill="black" stroke="black" points="140.57,-879.06 143.43,-868.85 134.83,-875.05 140.57,-879.06"/>
</g>
<!-- linear_weight -->
<g id="node2" class="node">
<title>linear_weight</title>
<path fill="LightGrey" stroke="black" d="M198.5,-904.25C198.5,-904.25 351.75,-904.25 351.75,-904.25 357.75,-904.25 363.75,-910.25 363.75,-916.25 363.75,-916.25 363.75,-993.25 363.75,-993.25 363.75,-999.25 357.75,-1005.25 351.75,-1005.25 351.75,-1005.25 198.5,-1005.25 198.5,-1005.25 192.5,-1005.25 186.5,-999.25 186.5,-993.25 186.5,-993.25 186.5,-916.25 186.5,-916.25 186.5,-910.25 192.5,-904.25 198.5,-904.25"/>
<text xml:space="preserve" text-anchor="middle" x="275.12" y="-987.95" font-family="Times,serif" font-size="14.00" fill="#000000">name=%linear_weight</text>
<polyline fill="none" stroke="black" points="186.5,-980 363.75,-980"/>
<text xml:space="preserve" text-anchor="middle" x="275.12" y="-962.7" font-family="Times,serif" font-size="14.00" fill="#000000">op_code=get_attr</text>
<polyline fill="none" stroke="black" points="186.5,-954.75 363.75,-954.75"/>
<text xml:space="preserve" text-anchor="middle" x="275.12" y="-937.45" font-family="Times,serif" font-size="14.00" fill="#000000">target=linear.weight</text>
<polyline fill="none" stroke="black" points="186.5,-929.5 363.75,-929.5"/>
<text xml:space="preserve" text-anchor="middle" x="275.12" y="-912.2" font-family="Times,serif" font-size="14.00" fill="#000000">num_users=1</text>
</g>
<!-- linear_weight&#45;&gt;add -->
<g id="edge4" class="edge">
<title>linear_weight&#45;&gt;add</title>
<path fill="none" stroke="black" d="M239.92,-903.88C233.73,-895.1 227.22,-885.89 220.87,-876.89"/>
<polygon fill="black" stroke="black" points="223.82,-875 215.2,-868.85 218.1,-879.04 223.82,-875"/>
</g>
<!-- linear -->
<g id="node4" class="node">
<title>linear</title>
<path fill="#fffacd" stroke="black" d="M338.62,-603C338.62,-603 549.62,-603 549.62,-603 555.62,-603 561.62,-609 561.62,-615 561.62,-615 561.62,-717.25 561.62,-717.25 561.62,-723.25 555.62,-729.25 549.62,-729.25 549.62,-729.25 338.62,-729.25 338.62,-729.25 332.62,-729.25 326.62,-723.25 326.62,-717.25 326.62,-717.25 326.62,-615 326.62,-615 326.62,-609 332.62,-603 338.62,-603"/>
<text xml:space="preserve" text-anchor="middle" x="444.12" y="-711.95" font-family="Times,serif" font-size="14.00" fill="#000000">name=%linear</text>
<polyline fill="none" stroke="black" points="326.62,-704 561.62,-704"/>
<text xml:space="preserve" text-anchor="middle" x="444.12" y="-686.7" font-family="Times,serif" font-size="14.00" fill="#000000">op_code=call_module</text>
<text xml:space="preserve" text-anchor="middle" x="444.12" y="-653.45" font-family="Times,serif" font-size="14.00" fill="#000000">torch.nn.modules.linear.Linear</text>
<polyline fill="none" stroke="black" points="326.62,-645.5 561.62,-645.5"/>
<text xml:space="preserve" text-anchor="middle" x="444.12" y="-628.2" font-family="Times,serif" font-size="14.00" fill="#000000">in_features: 4</text>
<text xml:space="preserve" text-anchor="middle" x="444.12" y="-610.95" font-family="Times,serif" font-size="14.00" fill="#000000">out_features: 5</text>
</g>
<!-- add&#45;&gt;linear -->
<g id="edge5" class="edge">
<title>add&#45;&gt;linear</title>
<path fill="none" stroke="black" d="M267,-766.47C284.96,-756.39 304.16,-745.62 323.05,-735.03"/>
<polygon fill="black" stroke="black" points="324.56,-738.2 331.57,-730.25 321.14,-732.09 324.56,-738.2"/>
</g>
<!-- relu -->
<g id="node7" class="node">
<title>relu</title>
<path fill="#ffdab9" stroke="black" d="M370.88,-465C370.88,-465 517.38,-465 517.38,-465 523.38,-465 529.38,-471 529.38,-477 529.38,-477 529.38,-554 529.38,-554 529.38,-560 523.38,-566 517.38,-566 517.38,-566 370.88,-566 370.88,-566 364.88,-566 358.88,-560 358.88,-554 358.88,-554 358.88,-477 358.88,-477 358.88,-471 364.88,-465 370.88,-465"/>
<text xml:space="preserve" text-anchor="middle" x="444.12" y="-548.7" font-family="Times,serif" font-size="14.00" fill="#000000">name=%relu</text>
<polyline fill="none" stroke="black" points="358.88,-540.75 529.38,-540.75"/>
<text xml:space="preserve" text-anchor="middle" x="444.12" y="-523.45" font-family="Times,serif" font-size="14.00" fill="#000000">op_code=call_method</text>
<polyline fill="none" stroke="black" points="358.88,-515.5 529.38,-515.5"/>
<text xml:space="preserve" text-anchor="middle" x="444.12" y="-498.2" font-family="Times,serif" font-size="14.00" fill="#000000">target=relu</text>
<polyline fill="none" stroke="black" points="358.88,-490.25 529.38,-490.25"/>
<text xml:space="preserve" text-anchor="middle" x="444.12" y="-472.95" font-family="Times,serif" font-size="14.00" fill="#000000">num_users=1</text>
</g>
<!-- linear&#45;&gt;relu -->
<g id="edge6" class="edge">
<title>linear&#45;&gt;relu</title>
<path fill="none" stroke="black" d="M444.12,-602.53C444.12,-594.33 444.12,-585.94 444.12,-577.76"/>
<polygon fill="black" stroke="black" points="447.63,-577.91 444.13,-567.91 440.63,-577.91 447.63,-577.91"/>
</g>
<!-- linear.weight -->
<g id="node5" class="node">
<title>linear.weight</title>
<path fill="Salmon" stroke="black" d="M296.25,-791.5C296.25,-791.5 592,-791.5 592,-791.5 598,-791.5 604,-797.5 604,-803.5 604,-803.5 604,-830 604,-830 604,-836 598,-842 592,-842 592,-842 296.25,-842 296.25,-842 290.25,-842 284.25,-836 284.25,-830 284.25,-830 284.25,-803.5 284.25,-803.5 284.25,-797.5 290.25,-791.5 296.25,-791.5"/>
<text xml:space="preserve" text-anchor="middle" x="444.12" y="-824.7" font-family="Times,serif" font-size="14.00" fill="#000000">linear.weight</text>
<polyline fill="none" stroke="black" points="284.25,-816.75 604,-816.75"/>
<text xml:space="preserve" text-anchor="middle" x="444.12" y="-799.45" font-family="Times,serif" font-size="14.00" fill="#000000">op_code=get_parametertorch.float32[5, 4]</text>
</g>
<!-- linear.weight&#45;&gt;linear -->
<g id="edge1" class="edge">
<title>linear.weight&#45;&gt;linear</title>
<path fill="none" stroke="black" d="M444.12,-791.21C444.12,-777.28 444.12,-759.03 444.12,-740.84"/>
<polygon fill="black" stroke="black" points="447.63,-741.06 444.13,-731.06 440.63,-741.06 447.63,-741.06"/>
</g>
<!-- linear.bias -->
<g id="node6" class="node">
<title>linear.bias</title>
<path fill="Salmon" stroke="black" d="M634.25,-791.5C634.25,-791.5 912,-791.5 912,-791.5 918,-791.5 924,-797.5 924,-803.5 924,-803.5 924,-830 924,-830 924,-836 918,-842 912,-842 912,-842 634.25,-842 634.25,-842 628.25,-842 622.25,-836 622.25,-830 622.25,-830 622.25,-803.5 622.25,-803.5 622.25,-797.5 628.25,-791.5 634.25,-791.5"/>
<text xml:space="preserve" text-anchor="middle" x="773.12" y="-824.7" font-family="Times,serif" font-size="14.00" fill="#000000">linear.bias</text>
<polyline fill="none" stroke="black" points="622.25,-816.75 924,-816.75"/>
<text xml:space="preserve" text-anchor="middle" x="773.12" y="-799.45" font-family="Times,serif" font-size="14.00" fill="#000000">op_code=get_parametertorch.float32[5]</text>
</g>
<!-- linear.bias&#45;&gt;linear -->
<g id="edge2" class="edge">
<title>linear.bias&#45;&gt;linear</title>
<path fill="none" stroke="black" d="M718.43,-791.04C678.6,-773.05 622.96,-747.91 572.2,-724.98"/>
<polygon fill="black" stroke="black" points="573.72,-721.83 563.16,-720.9 570.84,-728.21 573.72,-721.83"/>
</g>
<!-- sum_1 -->
<g id="node8" class="node">
<title>sum_1</title>
<path fill="#98f5ff" stroke="black" d="M368.62,-301.75C368.62,-301.75 519.62,-301.75 519.62,-301.75 525.62,-301.75 531.62,-307.75 531.62,-313.75 531.62,-313.75 531.62,-416 531.62,-416 531.62,-422 525.62,-428 519.62,-428 519.62,-428 368.62,-428 368.62,-428 362.62,-428 356.62,-422 356.62,-416 356.62,-416 356.62,-313.75 356.62,-313.75 356.62,-307.75 362.62,-301.75 368.62,-301.75"/>
<text xml:space="preserve" text-anchor="middle" x="444.12" y="-410.7" font-family="Times,serif" font-size="14.00" fill="#000000">name=%sum_1</text>
<polyline fill="none" stroke="black" points="356.62,-402.75 531.62,-402.75"/>
<text xml:space="preserve" text-anchor="middle" x="444.12" y="-385.45" font-family="Times,serif" font-size="14.00" fill="#000000">op_code=call_function</text>
<polyline fill="none" stroke="black" points="356.62,-377.5 531.62,-377.5"/>
<text xml:space="preserve" text-anchor="middle" x="444.12" y="-360.2" font-family="Times,serif" font-size="14.00" fill="#000000">target=torch.sum</text>
<polyline fill="none" stroke="black" points="356.62,-352.25 531.62,-352.25"/>
<text xml:space="preserve" text-anchor="middle" x="444.12" y="-334.95" font-family="Times,serif" font-size="14.00" fill="#000000">kwargs={dim: &#45;1,}</text>
<polyline fill="none" stroke="black" points="356.62,-327 531.62,-327"/>
<text xml:space="preserve" text-anchor="middle" x="444.12" y="-309.7" font-family="Times,serif" font-size="14.00" fill="#000000">num_users=1</text>
</g>
<!-- relu&#45;&gt;sum_1 -->
<g id="edge7" class="edge">
<title>relu&#45;&gt;sum_1</title>
<path fill="none" stroke="black" d="M444.12,-464.6C444.12,-456.6 444.12,-448.17 444.12,-439.75"/>
<polygon fill="black" stroke="black" points="447.63,-439.83 444.13,-429.83 440.63,-439.83 447.63,-439.83"/>
</g>
<!-- topk -->
<g id="node9" class="node">
<title>topk</title>
<path fill="#caff70" stroke="black" d="M368.62,-138.5C368.62,-138.5 519.62,-138.5 519.62,-138.5 525.62,-138.5 531.62,-144.5 531.62,-150.5 531.62,-150.5 531.62,-252.75 531.62,-252.75 531.62,-258.75 525.62,-264.75 519.62,-264.75 519.62,-264.75 368.62,-264.75 368.62,-264.75 362.62,-264.75 356.62,-258.75 356.62,-252.75 356.62,-252.75 356.62,-150.5 356.62,-150.5 356.62,-144.5 362.62,-138.5 368.62,-138.5"/>
<text xml:space="preserve" text-anchor="middle" x="444.12" y="-247.45" font-family="Times,serif" font-size="14.00" fill="#000000">name=%topk</text>
<polyline fill="none" stroke="black" points="356.62,-239.5 531.62,-239.5"/>
<text xml:space="preserve" text-anchor="middle" x="444.12" y="-222.2" font-family="Times,serif" font-size="14.00" fill="#000000">op_code=call_function</text>
<polyline fill="none" stroke="black" points="356.62,-214.25 531.62,-214.25"/>
<text xml:space="preserve" text-anchor="middle" x="444.12" y="-196.95" font-family="Times,serif" font-size="14.00" fill="#000000">target=torch.topk</text>
<polyline fill="none" stroke="black" points="356.62,-189 531.62,-189"/>
<text xml:space="preserve" text-anchor="middle" x="444.12" y="-171.7" font-family="Times,serif" font-size="14.00" fill="#000000">args=(3,)</text>
<polyline fill="none" stroke="black" points="356.62,-163.75 531.62,-163.75"/>
<text xml:space="preserve" text-anchor="middle" x="444.12" y="-146.45" font-family="Times,serif" font-size="14.00" fill="#000000">num_users=1</text>
</g>
<!-- sum_1&#45;&gt;topk -->
<g id="edge8" class="edge">
<title>sum_1&#45;&gt;topk</title>
<path fill="none" stroke="black" d="M444.12,-301.53C444.12,-293.31 444.12,-284.81 444.12,-276.42"/>
<polygon fill="black" stroke="black" points="447.63,-276.58 444.13,-266.58 440.63,-276.58 447.63,-276.58"/>
</g>
<!-- output -->
<g id="node10" class="node">
<title>output</title>
<path fill="PowderBlue" stroke="black" d="M390,-0.5C390,-0.5 498.25,-0.5 498.25,-0.5 504.25,-0.5 510.25,-6.5 510.25,-12.5 510.25,-12.5 510.25,-89.5 510.25,-89.5 510.25,-95.5 504.25,-101.5 498.25,-101.5 498.25,-101.5 390,-101.5 390,-101.5 384,-101.5 378,-95.5 378,-89.5 378,-89.5 378,-12.5 378,-12.5 378,-6.5 384,-0.5 390,-0.5"/>
<text xml:space="preserve" text-anchor="middle" x="444.12" y="-84.2" font-family="Times,serif" font-size="14.00" fill="#000000">name=%output</text>
<polyline fill="none" stroke="black" points="378,-76.25 510.25,-76.25"/>
<text xml:space="preserve" text-anchor="middle" x="444.12" y="-58.95" font-family="Times,serif" font-size="14.00" fill="#000000">op_code=output</text>
<polyline fill="none" stroke="black" points="378,-51 510.25,-51"/>
<text xml:space="preserve" text-anchor="middle" x="444.12" y="-33.7" font-family="Times,serif" font-size="14.00" fill="#000000">target=output</text>
<polyline fill="none" stroke="black" points="378,-25.75 510.25,-25.75"/>
<text xml:space="preserve" text-anchor="middle" x="444.12" y="-8.45" font-family="Times,serif" font-size="14.00" fill="#000000">num_users=0</text>
</g>
<!-- topk&#45;&gt;output -->
<g id="edge9" class="edge">
<title>topk&#45;&gt;output</title>
<path fill="none" stroke="black" d="M444.12,-138.03C444.12,-129.83 444.12,-121.44 444.12,-113.26"/>
<polygon fill="black" stroke="black" points="447.63,-113.41 444.13,-103.41 440.63,-113.41 447.63,-113.41"/>
</g>
</g>
</svg>
